<svg width="25" height="25" viewBox="0 0 25 25" fill="none" xmlns="http://www.w3.org/2000/svg">
<rect x="0.400391" y="0.200195" width="24.6006" height="24.6006" rx="3.07508" fill="#F2F5FA" fill-opacity="0.15"/>
<path d="M19.1625 5.95635C17.4369 4.22662 15.1388 3.27527 12.6966 3.27527C7.65564 3.27527 3.55371 7.3772 3.55371 12.4181C3.55371 14.0284 3.97379 15.6017 4.77276 16.9896L3.47546 21.7257L8.32283 20.4531C9.65719 21.1821 11.1604 21.5651 12.6925 21.5651H12.6966C17.7334 21.5651 21.9259 17.4632 21.9259 12.4222C21.9259 9.98003 20.8881 7.68608 19.1625 5.95635ZM12.6966 20.0248C11.3293 20.0248 9.99078 19.6583 8.82527 18.9664L8.54934 18.8017L5.67469 19.5553L6.44071 16.7507L6.25951 16.4624C5.4976 15.2516 5.09812 13.8554 5.09812 12.4181C5.09812 8.22971 8.50815 4.81967 12.7007 4.81967C14.7311 4.81967 16.6379 5.6104 18.0711 7.04773C19.5043 8.48505 20.3856 10.3919 20.3815 12.4222C20.3815 16.6148 16.885 20.0248 12.6966 20.0248ZM16.8644 14.3332C16.6379 14.2179 15.5136 13.666 15.3035 13.5919C15.0935 13.5136 14.9411 13.4766 14.7887 13.7072C14.6363 13.9378 14.1998 14.4485 14.0639 14.605C13.9321 14.7574 13.7962 14.778 13.5697 14.6627C12.2271 13.9914 11.3457 13.4642 10.4603 11.9445C10.2255 11.5409 10.695 11.5697 11.1316 10.6966C11.2057 10.5443 11.1686 10.4125 11.111 10.2971C11.0533 10.1818 10.5962 9.05751 10.4067 8.60037C10.2214 8.15558 10.032 8.21735 9.89194 8.20912C9.76015 8.20088 9.60777 8.20088 9.45539 8.20088C9.30301 8.20088 9.0559 8.25854 8.84586 8.48505C8.63582 8.71568 8.04689 9.26755 8.04689 10.3919C8.04689 11.5162 8.86646 12.6035 8.97765 12.7558C9.09297 12.9082 10.5879 15.2145 12.8819 16.2071C14.3316 16.8331 14.8999 16.8866 15.6248 16.7795C16.0654 16.7136 16.9756 16.2276 17.165 15.6923C17.3545 15.1569 17.3545 14.6997 17.2968 14.605C17.2433 14.502 17.0909 14.4444 16.8644 14.3332Z" fill="#F2F5FA"/>
</svg>
